<svg xmlns="http://www.w3.org/2000/svg" width="18" height="18" viewBox="0 0 18 18" fill="none">
<path d="M17.1414 0.858552C16.6728 0.389923 15.913 0.389923 15.4444 0.858552L9 7.30292L2.55564 0.858552C2.08701 0.389923 1.32721 0.389923 0.858584 0.858552C0.389954 1.32718 0.389954 2.08698 0.858583 2.55561L7.30295 8.99997L0.858582 15.4443C0.389953 15.913 0.389954 16.6728 0.858583 17.1414C1.32721 17.61 2.08701 17.61 2.55564 17.1414L9 10.697L15.4444 17.1414C15.913 17.61 16.6728 17.61 17.1414 17.1414C17.6101 16.6728 17.6101 15.913 17.1414 15.4443L10.6971 8.99997L17.1414 2.55561C17.6101 2.08698 17.6101 1.32718 17.1414 0.858552Z" fill="#A5A5A5"/>
</svg>